# xmcd CD database file
#
# Track frame offsets:
#	150
#	23983
#	47761
#	77891
#	98814
#
# Disc length: 1604 seconds
#
# Revision: 0
# Processed by: cddbd v1.4PL0 Copyright (c) Steve Scherf et al.
# Submitted via: Feurio! 1.65 - http://www.feurio.com
#
DISCID=36064205
DTITLE=C-Nario - What's Going On The E.P.
DYEAR=1900
DGENRE=blues
TTITLE0=What's Going On
TTITLE1=What's Going On (No Rap)
TTITLE2=You Gonna Make Me Love Somebody Else
TTITLE3=Body Fusion IV
TTITLE4=Phone First
EXTD=
EXTT0=
EXTT1=
EXTT2=
EXTT3=
EXTT4=
PLAYORDER=
